<svg width="20" height="21" viewBox="0 0 20 21" fill="none" xmlns="http://www.w3.org/2000/svg">
<path d="M18.9 14.4433C17.5333 14.4433 16.2111 14.21 14.9778 13.79C14.5889 13.65 14.1556 13.755 13.8556 14.07L12.1111 16.3683C8.96667 14.7933 6.02222 11.8183 4.45556 8.4L6.62222 6.46333C6.92222 6.13667 7.01111 5.68167 6.88889 5.27333C6.47778 3.97833 6.26667 2.59 6.26667 1.155C6.26667 0.525 5.76667 0 5.16667 0H1.32222C0.722222 0 0 0.28 0 1.155C0 11.9933 8.58889 21 18.9 21C19.6889 21 20 20.265 20 19.6233V15.5983C20 14.9683 19.5 14.4433 18.9 14.4433Z" fill="#040725"/>
</svg>
