<svg width="27" height="30" viewBox="0 0 27 30" fill="none" xmlns="http://www.w3.org/2000/svg">
<path d="M25.515 20.3141C23.67 20.3141 21.885 19.9859 20.22 19.3952C19.695 19.1983 19.11 19.346 18.705 19.789L16.35 23.0216C12.105 20.8064 8.13 16.6221 6.015 11.8143L8.94 9.09048C9.345 8.63104 9.465 7.99109 9.3 7.41678C8.745 5.59541 8.46 3.64276 8.46 1.62447C8.46 0.738397 7.785 0 6.975 0H1.785C0.975 0 0 0.393812 0 1.62447C0 16.8683 11.595 29.5359 25.515 29.5359C26.58 29.5359 27 28.5021 27 27.5996V21.9386C27 21.0525 26.325 20.3141 25.515 20.3141Z" fill="#040725"/>
</svg>
