<svg width="63" height="63" viewBox="0 0 63 63" fill="none" xmlns="http://www.w3.org/2000/svg">
<path d="M26.2571 31.5807C26.2571 28.6787 28.6083 26.3256 31.5095 26.3256C34.4106 26.3256 36.763 28.6787 36.763 31.5807C36.763 34.4826 34.4106 36.8357 31.5095 36.8357C28.6083 36.8357 26.2571 34.4826 26.2571 31.5807ZM23.4172 31.5807C23.4172 36.0513 27.0401 39.6753 31.5095 39.6753C35.9788 39.6753 39.6017 36.0513 39.6017 31.5807C39.6017 27.11 35.9788 23.486 31.5095 23.486C27.0401 23.486 23.4172 27.11 23.4172 31.5807ZM38.031 23.1651C38.0308 23.5392 38.1416 23.905 38.3493 24.2162C38.5569 24.5273 38.8522 24.7699 39.1977 24.9132C39.5432 25.0565 39.9234 25.0942 40.2903 25.0213C40.6572 24.9485 40.9942 24.7684 41.2588 24.504C41.5234 24.2395 41.7036 23.9025 41.7767 23.5356C41.8499 23.1687 41.8126 22.7883 41.6696 22.4426C41.5266 22.0969 41.2843 21.8014 40.9734 21.5934C40.6625 21.3854 40.2969 21.2743 39.9229 21.2741H39.9221C39.4207 21.2744 38.94 21.4737 38.5854 21.8282C38.2308 22.1827 38.0314 22.6636 38.031 23.1651ZM25.1426 44.4122C23.6061 44.3422 22.771 44.0862 22.216 43.8699C21.4803 43.5834 20.9553 43.2421 20.4033 42.6907C19.8514 42.1394 19.5097 41.6148 19.2245 40.8788C19.0082 40.3239 18.7522 39.4883 18.6824 37.9513C18.606 36.2897 18.5907 35.7905 18.5907 31.5808C18.5907 27.371 18.6073 26.8733 18.6824 25.2102C18.7524 23.6733 19.0102 22.8393 19.2245 22.2828C19.511 21.5468 19.8521 21.0217 20.4033 20.4696C20.9545 19.9174 21.479 19.5757 22.216 19.2904C22.7708 19.074 23.6061 18.818 25.1426 18.7481C26.8038 18.6717 27.3028 18.6564 31.5095 18.6564C35.7161 18.6564 36.2156 18.673 37.8782 18.7481C39.4146 18.8181 40.2484 19.076 40.8048 19.2904C41.5405 19.5757 42.0655 19.9182 42.6175 20.4696C43.1694 21.0209 43.5098 21.5468 43.7963 22.2828C44.0126 22.8377 44.2686 23.6733 44.3384 25.2102C44.4148 26.8733 44.4301 27.371 44.4301 31.5808C44.4301 35.7905 44.4148 36.2883 44.3384 37.9513C44.2684 39.4883 44.0112 40.3236 43.7963 40.8788C43.5098 41.6148 43.1687 42.1399 42.6175 42.6907C42.0663 43.2416 41.5405 43.5834 40.8048 43.8699C40.25 44.0863 39.4146 44.3423 37.8782 44.4122C36.217 44.4886 35.718 44.5039 31.5095 44.5039C27.3009 44.5039 26.8033 44.4886 25.1426 44.4122ZM25.0121 15.9121C23.3345 15.9885 22.1881 16.2546 21.1869 16.6443C20.15 17.0467 19.2723 17.5866 18.3952 18.4626C17.5181 19.3386 16.9797 20.218 16.5774 21.2551C16.1879 22.2572 15.9218 23.4033 15.8454 25.0815C15.7678 26.7623 15.75 27.2997 15.75 31.5807C15.75 35.8616 15.7678 36.399 15.8454 38.0798C15.9218 39.7581 16.1879 40.9041 16.5774 41.9062C16.9797 42.9427 17.5182 43.8231 18.3952 44.6987C19.2722 45.5743 20.15 46.1134 21.1869 46.517C22.1899 46.9067 23.3345 47.1728 25.0121 47.2492C26.6934 47.3256 27.2297 47.3447 31.5095 47.3447C35.7892 47.3447 36.3264 47.3269 38.0068 47.2492C39.6846 47.1728 40.8302 46.9067 41.832 46.517C42.8682 46.1134 43.7466 45.5747 44.6237 44.6987C45.5008 43.8227 46.038 42.9427 46.4415 41.9062C46.831 40.9041 47.0983 39.758 47.1735 38.0798C47.2499 36.3978 47.2676 35.8616 47.2676 31.5807C47.2676 27.2997 47.2499 26.7623 47.1735 25.0815C47.0971 23.4032 46.831 22.2566 46.4415 21.2551C46.038 20.2186 45.4994 19.34 44.6237 18.4626C43.748 17.5852 42.8682 17.0467 41.8333 16.6443C40.8302 16.2546 39.6844 15.9873 38.008 15.9121C36.3277 15.8357 35.7905 15.8167 31.5107 15.8167C27.2309 15.8167 26.6934 15.8344 25.0121 15.9121Z" fill="#BECEE8"/>
<path d="M26.2571 31.5807C26.2571 28.6787 28.6083 26.3256 31.5095 26.3256C34.4106 26.3256 36.763 28.6787 36.763 31.5807C36.763 34.4826 34.4106 36.8357 31.5095 36.8357C28.6083 36.8357 26.2571 34.4826 26.2571 31.5807ZM23.4172 31.5807C23.4172 36.0513 27.0401 39.6753 31.5095 39.6753C35.9788 39.6753 39.6017 36.0513 39.6017 31.5807C39.6017 27.11 35.9788 23.486 31.5095 23.486C27.0401 23.486 23.4172 27.11 23.4172 31.5807ZM38.031 23.1651C38.0308 23.5392 38.1416 23.905 38.3493 24.2162C38.5569 24.5273 38.8522 24.7699 39.1977 24.9132C39.5432 25.0565 39.9234 25.0942 40.2903 25.0213C40.6572 24.9485 40.9942 24.7684 41.2588 24.504C41.5234 24.2395 41.7036 23.9025 41.7767 23.5356C41.8499 23.1687 41.8126 22.7883 41.6696 22.4426C41.5266 22.0969 41.2843 21.8014 40.9734 21.5934C40.6625 21.3854 40.2969 21.2743 39.9229 21.2741H39.9221C39.4207 21.2744 38.94 21.4737 38.5854 21.8282C38.2308 22.1827 38.0314 22.6636 38.031 23.1651ZM25.1426 44.4122C23.6061 44.3422 22.771 44.0862 22.216 43.8699C21.4803 43.5834 20.9553 43.2421 20.4033 42.6907C19.8514 42.1394 19.5097 41.6148 19.2245 40.8788C19.0082 40.3239 18.7522 39.4883 18.6824 37.9513C18.606 36.2897 18.5907 35.7905 18.5907 31.5808C18.5907 27.371 18.6073 26.8733 18.6824 25.2102C18.7524 23.6733 19.0102 22.8393 19.2245 22.2828C19.511 21.5468 19.8521 21.0217 20.4033 20.4696C20.9545 19.9174 21.479 19.5757 22.216 19.2904C22.7708 19.074 23.6061 18.818 25.1426 18.7481C26.8038 18.6717 27.3028 18.6564 31.5095 18.6564C35.7161 18.6564 36.2156 18.673 37.8782 18.7481C39.4146 18.8181 40.2484 19.076 40.8048 19.2904C41.5405 19.5757 42.0655 19.9182 42.6175 20.4696C43.1694 21.0209 43.5098 21.5468 43.7963 22.2828C44.0126 22.8377 44.2686 23.6733 44.3384 25.2102C44.4148 26.8733 44.4301 27.371 44.4301 31.5808C44.4301 35.7905 44.4148 36.2883 44.3384 37.9513C44.2684 39.4883 44.0112 40.3236 43.7963 40.8788C43.5098 41.6148 43.1687 42.1399 42.6175 42.6907C42.0663 43.2416 41.5405 43.5834 40.8048 43.8699C40.25 44.0863 39.4146 44.3423 37.8782 44.4122C36.217 44.4886 35.718 44.5039 31.5095 44.5039C27.3009 44.5039 26.8033 44.4886 25.1426 44.4122ZM25.0121 15.9121C23.3345 15.9885 22.1881 16.2546 21.1869 16.6443C20.15 17.0467 19.2723 17.5866 18.3952 18.4626C17.5181 19.3386 16.9797 20.218 16.5774 21.2551C16.1879 22.2572 15.9218 23.4033 15.8454 25.0815C15.7678 26.7623 15.75 27.2997 15.75 31.5807C15.75 35.8616 15.7678 36.399 15.8454 38.0798C15.9218 39.7581 16.1879 40.9041 16.5774 41.9062C16.9797 42.9427 17.5182 43.8231 18.3952 44.6987C19.2722 45.5743 20.15 46.1134 21.1869 46.517C22.1899 46.9067 23.3345 47.1728 25.0121 47.2492C26.6934 47.3256 27.2297 47.3447 31.5095 47.3447C35.7892 47.3447 36.3264 47.3269 38.0068 47.2492C39.6846 47.1728 40.8302 46.9067 41.832 46.517C42.8682 46.1134 43.7466 45.5747 44.6237 44.6987C45.5008 43.8227 46.038 42.9427 46.4415 41.9062C46.831 40.9041 47.0983 39.758 47.1735 38.0798C47.2499 36.3978 47.2676 35.8616 47.2676 31.5807C47.2676 27.2997 47.2499 26.7623 47.1735 25.0815C47.0971 23.4032 46.831 22.2566 46.4415 21.2551C46.038 20.2186 45.4994 19.34 44.6237 18.4626C43.748 17.5852 42.8682 17.0467 41.8333 16.6443C40.8302 16.2546 39.6844 15.9873 38.008 15.9121C36.3277 15.8357 35.7905 15.8167 31.5107 15.8167C27.2309 15.8167 26.6934 15.8344 25.0121 15.9121Z" fill="#BECEE8"/>
</svg>
