<svg width="67" height="64" viewBox="0 0 67 64" fill="none" xmlns="http://www.w3.org/2000/svg">
<path d="M25.7931 44.9686V27.6803H19.7827V44.9686H25.7937H25.7931ZM22.7892 25.3203C24.8847 25.3203 26.1893 23.9928 26.1893 22.3338C26.15 20.6369 24.8847 19.3464 22.829 19.3464C20.772 19.3464 19.4285 20.6369 19.4285 22.3336C19.4285 23.9927 20.7326 25.3202 22.7498 25.3202H22.7887L22.7892 25.3203ZM29.1199 44.9686H35.1298V35.3151C35.1298 34.7991 35.169 34.2817 35.3278 33.9132C35.7621 32.8804 36.751 31.8113 38.4118 31.8113C40.586 31.8113 41.4563 33.3965 41.4563 35.7209V44.9686H47.4661V35.056C47.4661 29.7461 44.5014 27.275 40.5471 27.275C37.3052 27.275 35.8813 29.0074 35.0903 30.1874H35.1303V27.6809H29.1202C29.1987 29.3028 29.1198 44.9692 29.1198 44.9692L29.1199 44.9686Z" fill="#BECEE8"/>
</svg>
