<svg width="50" height="43" viewBox="0 0 50 43" fill="none" xmlns="http://www.w3.org/2000/svg">
<path d="M20.9344 21.715C24.4126 14.147 33.4342 10.8145 41.0863 14.2545C48.7383 17.6945 52.1078 26.617 48.6296 34.185C46.1731 39.56 40.7602 43 34.782 43C28.9126 43 23.5431 39.646 21.0214 34.4H0V30.1C0.130433 27.649 1.82606 25.6495 5.08687 24.037C8.34769 22.4245 12.4346 21.586 17.391 21.5C18.6301 21.5 19.804 21.6075 20.9344 21.715ZM17.391 0C19.8258 0.0645 21.8692 0.903 23.4996 2.5155C25.13 4.128 25.9344 6.149 25.9344 8.6C25.9344 11.051 25.13 13.072 23.4996 14.6845C21.8692 16.297 19.8258 17.0925 17.391 17.0925C14.9563 17.0925 12.9128 16.297 11.2824 14.6845C9.65201 13.072 8.84768 11.051 8.84768 8.6C8.84768 6.149 9.65201 4.128 11.2824 2.5155C12.9128 0.903 14.9563 0.0645 17.391 0ZM34.782 38.7C37.6648 38.7 40.4294 37.5674 42.4678 35.5514C44.5063 33.5354 45.6514 30.8011 45.6514 27.95C45.6514 25.0989 44.5063 22.3646 42.4678 20.3486C40.4294 18.3326 37.6648 17.2 34.782 17.2C31.8993 17.2 29.1346 18.3326 27.0962 20.3486C25.0578 22.3646 23.9126 25.0989 23.9126 27.95C23.9126 30.8011 25.0578 33.5354 27.0962 35.5514C29.1346 37.5674 31.8993 38.7 34.782 38.7ZM32.6082 21.5H35.869V27.563L41.1732 30.5945L39.5428 33.3895L32.6082 29.4335V21.5Z" fill="#040725"/>
</svg>
