<svg width="21" height="22" viewBox="0 0 21 22" fill="none" xmlns="http://www.w3.org/2000/svg">
<path d="M19.845 15.1311C18.41 15.1311 17.0217 14.8867 15.7267 14.4467C15.3183 14.3 14.8633 14.41 14.5483 14.74L12.7167 17.1478C9.415 15.4978 6.32333 12.3811 4.67833 8.8L6.95333 6.77111C7.26833 6.42889 7.36167 5.95222 7.23333 5.52444C6.80167 4.16778 6.58 2.71333 6.58 1.21C6.58 0.55 6.055 0 5.425 0H1.38833C0.758333 0 0 0.293333 0 1.21C0 12.5644 9.01833 22 19.845 22C20.6733 22 21 21.23 21 20.5578V16.3411C21 15.6811 20.475 15.1311 19.845 15.1311Z" fill="#BECEE8"/>
</svg>
